<svg width="144" height="144" viewBox="0 0 144 144" fill="none" xmlns="http://www.w3.org/2000/svg">
<path d="M21.88 104.49L12.5652 113.805L30.202 131.435L39.5168 122.12C45.6945 126.133 52.4721 128.939 59.7047 130.463V143.659H84.643V130.463C91.8757 128.939 98.6532 126.133 104.831 122.12L114.146 131.435L131.783 113.805L122.468 104.49C126.48 98.3193 129.28 91.5418 130.803 84.3023H144V59.357H130.803C129.28 52.1175 126.48 45.34 122.468 39.1761L131.783 29.8612L114.146 12.2175L104.824 21.5323C98.6532 17.5265 91.8757 14.7203 84.643 13.1966V0H59.7047V13.1966C52.4721 14.7203 45.6945 17.5265 39.5237 21.5323L30.202 12.2175L12.5652 29.8612L21.88 39.1761C17.8673 45.34 15.068 52.1175 13.5442 59.357H0.347656V84.3023H13.5373C15.068 91.5418 17.8673 98.3193 21.88 104.49ZM3.87778 62.8871H16.4607L16.7296 61.4461C18.1706 53.6688 21.1561 46.4362 25.6101 39.9483L26.4443 38.7348L17.557 29.8612L30.202 17.2093L39.0824 26.0898L40.2959 25.2624C46.7839 20.8153 54.0165 17.8299 61.7938 16.382L63.2348 16.1131V3.53012H81.1129V16.1131L82.5539 16.382C90.3312 17.8299 97.5638 20.8153 104.052 25.2624L105.265 26.0898L114.146 17.2093L126.791 29.8612L117.903 38.7348L118.738 39.9483C123.192 46.4362 126.177 53.6688 127.618 61.4461L127.887 62.8871H140.47V80.7722H127.887L127.618 82.2132C126.177 89.9905 123.192 97.2231 118.738 103.711L117.91 104.925L126.791 113.805L114.146 126.443L105.265 117.57L104.052 118.397C97.5638 122.844 90.3312 125.829 82.5539 127.277L81.1129 127.546V140.129H63.2348V127.546L61.7938 127.277C54.0165 125.829 46.7839 122.844 40.2959 118.397L39.0824 117.57L30.202 126.443L17.557 113.805L26.4374 104.925L25.6101 103.711C21.163 97.23 18.1706 89.9974 16.7227 82.2132L16.4538 80.7722H3.87778V62.8871Z" fill="white"/>
<path d="M72.17 101.029C88.2692 101.029 101.369 87.929 101.369 71.8297C101.369 55.7304 88.2692 42.6304 72.17 42.6304C56.0707 42.6304 42.9775 55.7304 42.9775 71.8297C42.9775 87.929 56.0707 101.029 72.17 101.029ZM72.17 46.1605C86.3249 46.1605 97.8392 57.6747 97.8392 71.8297C97.8392 85.9847 86.3249 97.4989 72.17 97.4989C58.0219 97.4989 46.5077 85.9847 46.5077 71.8297C46.5077 57.6747 58.0219 46.1605 72.17 46.1605Z" fill="white"/>
</svg>
