<svg width="37" height="26" viewBox="0 0 37 26" fill="none" xmlns="http://www.w3.org/2000/svg">
<path d="M36.209 4.082C35.7879 2.47 34.5631 1.222 32.9428 0.793C30.0721 0 18.4745 0 18.4745 0C18.4745 0 6.91517 0 4.05724 0.793C2.46241 1.222 1.21207 2.47 0.765517 4.082C0 6.942 0 12.974 0 12.974C0 12.974 0 19.045 0.765517 21.931C1.21207 23.504 2.46241 24.778 4.05724 25.22C6.91517 26 18.4745 26 18.4745 26C18.4745 26 30.0721 26 32.9428 25.22C34.5631 24.778 35.7879 23.504 36.209 21.931C37 19.045 37 12.974 37 12.974C37 12.974 37 6.942 36.209 4.082ZM14.6724 18.525V7.475L24.2414 13L14.6724 18.525Z" fill="white"/>
</svg>
